<svg width="362" height="123" viewBox="0 0 362 123" fill="none" xmlns="http://www.w3.org/2000/svg"><rect width="362" height="123" fill="#fff"/><path d="M110 26H30V106H110V26Z" fill="#000"/><path d="M120 16H40V96H120V16Z" fill="#131313"/><path d="M80 71C88.2843 71 95 64.2843 95 56C95 47.7157 88.2843 41 80 41C71.7157 41 65 47.7157 65 56C65 64.2843 71.7157 71 80 71Z" fill="#F5F5F5"/><path d="M60 81C62.7614 81 65 78.7614 65 76C65 73.2386 62.7614 71 60 71C57.2386 71 55 73.2386 55 76C55 78.7614 57.2386 81 60 81Z" fill="#F5F5F5"/><path d="M168.633 48.8281V75H165.117V56.0547L157.031 64.6875H156.094L147.812 56.0547V75H144.297V48.8281H145.391L156.562 60.8203L167.539 48.8281H168.633ZM184.297 55.0781C186.302 55.0781 187.969 55.4948 189.297 56.3281C190.625 57.1615 191.615 58.2943 192.266 59.7266C192.943 61.1589 193.281 62.7734 193.281 64.5703V66.4844H178.281C178.438 67.5781 178.815 68.5807 179.414 69.4922C180.013 70.4036 180.794 71.1328 181.758 71.6797C182.721 72.2005 183.828 72.4609 185.078 72.4609C186.484 72.4609 187.799 72.1094 189.023 71.4062C190.247 70.6771 191.276 69.8828 192.109 69.0234L192.07 72.5C191.706 72.9427 191.159 73.4115 190.43 73.9062C189.727 74.375 188.906 74.7656 187.969 75.0781C187.057 75.4167 186.094 75.5859 185.078 75.5859C183.099 75.5859 181.341 75.1172 179.805 74.1797C178.268 73.2422 177.057 72.0052 176.172 70.4688C175.312 68.9062 174.883 67.2005 174.883 65.3516C174.883 63.5026 175.286 61.7969 176.094 60.2344C176.901 58.6719 178.008 57.4219 179.414 56.4844C180.846 55.5469 182.474 55.0781 184.297 55.0781ZM184.297 58.2031C182.682 58.2031 181.354 58.75 180.312 59.8438C179.271 60.9115 178.62 62.2135 178.359 63.75H190.117C189.987 62.474 189.622 61.4323 189.023 60.625C188.451 59.8177 187.747 59.2188 186.914 58.8281C186.081 58.4115 185.208 58.2031 184.297 58.2031ZM207.383 55.0781C209.362 55.0781 211.12 55.5469 212.656 56.4844C214.193 57.4219 215.391 58.6719 216.25 60.2344C217.135 61.7969 217.578 63.5026 217.578 65.3516C217.578 67.2005 217.135 68.9062 216.25 70.4688C215.391 72.0052 214.193 73.2422 212.656 74.1797C211.12 75.1172 209.362 75.5859 207.383 75.5859C205.404 75.5859 203.646 75.1172 202.109 74.1797C200.573 73.2422 199.362 72.0052 198.477 70.4688C197.617 68.9062 197.188 67.2005 197.188 65.3516C197.188 63.5026 197.617 61.7969 198.477 60.2344C199.362 58.6719 200.573 57.4219 202.109 56.4844C203.646 55.5469 205.404 55.0781 207.383 55.0781ZM207.383 58.2031C206.003 58.2031 204.792 58.5417 203.75 59.2188C202.708 59.8698 201.901 60.7422 201.328 61.8359C200.781 62.9036 200.508 64.0755 200.508 65.3516C200.508 66.6016 200.781 67.7734 201.328 68.8672C201.901 69.9349 202.708 70.8073 203.75 71.4844C204.792 72.1354 206.003 72.4609 207.383 72.4609C208.789 72.4609 210 72.1354 211.016 71.4844C212.057 70.8073 212.852 69.9349 213.398 68.8672C213.971 67.7734 214.258 66.6016 214.258 65.3516C214.258 64.0755 213.971 62.9036 213.398 61.8359C212.852 60.7422 212.057 59.8698 211.016 59.2188C210 58.5417 208.789 58.2031 207.383 58.2031ZM248.477 55.4688L241.641 75H239.648L234.297 61.2109L228.945 75H226.953L220.117 55.4688H223.945L228.281 69.1797L233.398 55.4688H235.195L240.312 69.1797L244.648 55.4688H248.477ZM263.359 60.7031H274.883V71.4453C274.258 72.1224 273.451 72.7865 272.461 73.4375C271.471 74.0625 270.326 74.5833 269.023 75C267.747 75.3906 266.341 75.5859 264.805 75.5859C262.826 75.5859 261.003 75.2344 259.336 74.5312C257.669 73.8021 256.211 72.8125 254.961 71.5625C253.711 70.3125 252.734 68.8672 252.031 67.2266C251.354 65.5599 251.016 63.7891 251.016 61.9141C251.016 60.0391 251.354 58.2812 252.031 56.6406C252.734 54.974 253.711 53.5156 254.961 52.2656C256.211 51.0156 257.669 50.0391 259.336 49.3359C261.003 48.6068 262.826 48.2422 264.805 48.2422C266.706 48.2422 268.255 48.5026 269.453 49.0234C270.677 49.5443 271.745 50.2214 272.656 51.0547V54.9219C272.083 54.5052 271.432 54.0495 270.703 53.5547C270 53.0599 269.167 52.6302 268.203 52.2656C267.266 51.875 266.133 51.6797 264.805 51.6797C262.852 51.6797 261.107 52.1224 259.57 53.0078C258.034 53.8932 256.823 55.1172 255.938 56.6797C255.052 58.2161 254.609 59.9609 254.609 61.9141C254.609 63.8672 255.052 65.612 255.938 67.1484C256.823 68.6849 258.034 69.9089 259.57 70.8203C261.107 71.7057 262.852 72.1484 264.805 72.1484C266.133 72.1484 267.201 72.0182 268.008 71.7578C268.815 71.4714 269.453 71.1589 269.922 70.8203C270.391 70.4557 270.768 70.1562 271.055 69.9219L271.094 63.8281H263.359V60.7031ZM282.891 46.0938C283.646 46.0938 284.271 46.3672 284.766 46.9141C285.286 47.4349 285.547 48.0469 285.547 48.75C285.547 49.4271 285.286 50.0391 284.766 50.5859C284.271 51.1328 283.646 51.4062 282.891 51.4062C282.135 51.4062 281.497 51.1328 280.977 50.5859C280.482 50.0391 280.234 49.4271 280.234 48.75C280.234 48.0469 280.482 47.4349 280.977 46.9141C281.497 46.3672 282.135 46.0938 282.891 46.0938ZM284.883 55.4688V75H281.68V58.4766H278.594V55.4688H284.883ZM295 55.4688V58.5547C295.417 58.0339 295.951 57.513 296.602 56.9922C297.253 56.4453 297.982 55.9896 298.789 55.625C299.622 55.2604 300.482 55.0781 301.367 55.0781C302.695 55.0781 303.906 55.3776 305 55.9766C306.094 56.5495 306.966 57.4349 307.617 58.6328C308.268 59.8047 308.594 61.2891 308.594 63.0859V75H305.391L305.352 63.3984C305.352 61.7057 304.974 60.4167 304.219 59.5312C303.49 58.6458 302.357 58.2031 300.82 58.2031C299.779 58.2031 298.737 58.5938 297.695 59.375C296.68 60.1302 295.781 61.0156 295 62.0312V75H291.797V55.4688H295ZM322.695 55.0781C324.701 55.0781 326.367 55.4948 327.695 56.3281C329.023 57.1615 330.013 58.2943 330.664 59.7266C331.341 61.1589 331.68 62.7734 331.68 64.5703V66.4844H316.68C316.836 67.5781 317.214 68.5807 317.812 69.4922C318.411 70.4036 319.193 71.1328 320.156 71.6797C321.12 72.2005 322.227 72.4609 323.477 72.4609C324.883 72.4609 326.198 72.1094 327.422 71.4062C328.646 70.6771 329.674 69.8828 330.508 69.0234L330.469 72.5C330.104 72.9427 329.557 73.4115 328.828 73.9062C328.125 74.375 327.305 74.7656 326.367 75.0781C325.456 75.4167 324.492 75.5859 323.477 75.5859C321.497 75.5859 319.74 75.1172 318.203 74.1797C316.667 73.2422 315.456 72.0052 314.57 70.4688C313.711 68.9062 313.281 67.2005 313.281 65.3516C313.281 63.5026 313.685 61.7969 314.492 60.2344C315.299 58.6719 316.406 57.4219 317.812 56.4844C319.245 55.5469 320.872 55.0781 322.695 55.0781ZM322.695 58.2031C321.081 58.2031 319.753 58.75 318.711 59.8438C317.669 60.9115 317.018 62.2135 316.758 63.75H328.516C328.385 62.474 328.021 61.4323 327.422 60.625C326.849 59.8177 326.146 59.2188 325.312 58.8281C324.479 58.4115 323.607 58.2031 322.695 58.2031Z" fill="#000"/></svg>